# xmcd
#
# Track frame offsets:
#	150
#	10834
#	27796
#	41378
#	54422
#	67907
#	82711
#	95762
#	108950
#	123576
#	143481
#	157225
#	172493
#	185560
#	199842
#	215230
#	229339
#	242600
#	257605
#	271873
#
# Disc length: 3815 seconds
#
# Revision: 0
# Processed by: cddbd v1.5PL3 Copyright (c) Steve Scherf et al.
# Submitted via: dBpowerAMP V4.0
#
DISCID=180ee514
DTITLE=frank sinatra - signature
DYEAR=1900
DGENRE=
TTITLE0=ciribiribin
TTITLE1=polka dots and moonbeams
TTITLE2=i'll be seeing you
TTITLE3=whispering
TTITLE4=our love affair
TTITLE5=east of the sun
TTITLE6=two in love
TTITLE7=a sinner kissed an angel
TTITLE8=blue skies
TTITLE9=without a song
TTITLE10=everything happens to me
TTITLE11=the song is you
TTITLE12=i couldn't sleep a wink last night
TTITLE13=i fall in love too easily
TTITLE14=you'll never walk alone
TTITLE15=these foolish things
TTITLE16=begin the beguine
TTITLE17=poinciana
TTITLE18=sweet lorraine
TTITLE19=time after time
EXTD=
EXTT0=
EXTT1=
EXTT2=
EXTT3=
EXTT4=
EXTT5=
EXTT6=
EXTT7=
EXTT8=
EXTT9=
EXTT10=
EXTT11=
EXTT12=
EXTT13=
EXTT14=
EXTT15=
EXTT16=
EXTT17=
EXTT18=
EXTT19=
PLAYORDER=
